<?xml version="1.0" encoding="UTF-8" standalone="no"?>
<!DOCTYPE svg PUBLIC "-//W3C//DTD SVG 1.1//EN"
 "http://www.w3.org/Graphics/SVG/1.1/DTD/svg11.dtd">
<!-- Generated by graphviz version 2.44.0 (20200408.0750)
 -->
<!-- Title: dependency&#45;cruiser output Pages: 1 -->
<svg width="263pt" height="147pt"
 viewBox="0.00 0.00 262.51 147.00" xmlns="http://www.w3.org/2000/svg" xmlns:xlink="http://www.w3.org/1999/xlink">
<g id="graph0" class="graph" transform="scale(1 1) rotate(0) translate(4 143)">
<title>dependency&#45;cruiser output</title>
<polygon fill="white" stroke="transparent" points="-4,4 -4,-143 258.51,-143 258.51,4 -4,4"/>
<g id="clust1" class="cluster">
<title>cluster_src</title>
<path fill="#ffffff" stroke="black" stroke-width="2" d="M20,-8C20,-8 234.51,-8 234.51,-8 240.51,-8 246.51,-14 246.51,-20 246.51,-20 246.51,-119 246.51,-119 246.51,-125 240.51,-131 234.51,-131 234.51,-131 20,-131 20,-131 14,-131 8,-125 8,-119 8,-119 8,-20 8,-20 8,-14 14,-8 20,-8"/>
<text text-anchor="middle" x="127.25" y="-118.9" font-family="Helvetica,sans-Serif" font-weight="bold" font-size="9.00">src</text>
</g>
<g id="clust2" class="cluster">
<title>cluster_src/sort&#45;numbers</title>
<path fill="#ffffff" stroke="black" stroke-width="2" d="M28,-16C28,-16 226.51,-16 226.51,-16 232.51,-16 238.51,-22 238.51,-28 238.51,-28 238.51,-92 238.51,-92 238.51,-98 232.51,-104 226.51,-104 226.51,-104 28,-104 28,-104 22,-104 16,-98 16,-92 16,-92 16,-28 16,-28 16,-22 22,-16 28,-16"/>
<text text-anchor="middle" x="127.25" y="-91.9" font-family="Helvetica,sans-Serif" font-weight="bold" font-size="9.00">sort&#45;numbers</text>
</g>
<g id="clust3" class="cluster">
<title>cluster_src/sort&#45;numbers/example&#45;built&#45;in&#45;sort</title>
<path fill="#ffffff" stroke="black" stroke-width="2" d="M36,-24C36,-24 218.51,-24 218.51,-24 224.51,-24 230.51,-30 230.51,-36 230.51,-36 230.51,-65 230.51,-65 230.51,-71 224.51,-77 218.51,-77 218.51,-77 36,-77 36,-77 30,-77 24,-71 24,-65 24,-65 24,-36 24,-36 24,-30 30,-24 36,-24"/>
<text text-anchor="middle" x="127.25" y="-64.9" font-family="Helvetica,sans-Serif" font-weight="bold" font-size="9.00">example&#45;built&#45;in&#45;sort</text>
</g>
<!-- src/sort&#45;numbers/example&#45;built&#45;in&#45;sort/sort&#45;numbers.js -->
<g id="node1" class="node">
<title>src/sort&#45;numbers/example&#45;built&#45;in&#45;sort/sort&#45;numbers.js</title>
<g id="a_node1"><a xlink:href="../src/sort-numbers/example-built-in-sort/sort-numbers.js" xlink:title="sort&#45;numbers.js">
<path fill="#ffffcc" stroke="black" d="M216.3,-50.3C216.3,-50.3 150.71,-50.3 150.71,-50.3 147.61,-50.3 144.51,-47.2 144.51,-44.1 144.51,-44.1 144.51,-37.9 144.51,-37.9 144.51,-34.8 147.61,-31.7 150.71,-31.7 150.71,-31.7 216.3,-31.7 216.3,-31.7 219.4,-31.7 222.51,-34.8 222.51,-37.9 222.51,-37.9 222.51,-44.1 222.51,-44.1 222.51,-47.2 219.4,-50.3 216.3,-50.3"/>
<text text-anchor="middle" x="183.51" y="-38.3" font-family="Helvetica,sans-Serif" font-size="9.00">sort&#45;numbers.js</text>
</a>
</g>
</g>
<!-- src/sort&#45;numbers/example&#45;built&#45;in&#45;sort/sort&#45;numbers.spec.js -->
<g id="node2" class="node">
<title>src/sort&#45;numbers/example&#45;built&#45;in&#45;sort/sort&#45;numbers.spec.js</title>
<g id="a_node2"><a xlink:href="../src/sort-numbers/example-built-in-sort/sort-numbers.spec.js" xlink:title="sort&#45;numbers.spec.js">
<path fill="#ffffcc" stroke="black" d="M125.06,-50.3C125.06,-50.3 38.45,-50.3 38.45,-50.3 35.35,-50.3 32.25,-47.2 32.25,-44.1 32.25,-44.1 32.25,-37.9 32.25,-37.9 32.25,-34.8 35.35,-31.7 38.45,-31.7 38.45,-31.7 125.06,-31.7 125.06,-31.7 128.16,-31.7 131.26,-34.8 131.26,-37.9 131.26,-37.9 131.26,-44.1 131.26,-44.1 131.26,-47.2 128.16,-50.3 125.06,-50.3"/>
<text text-anchor="middle" x="81.75" y="-38.3" font-family="Helvetica,sans-Serif" font-size="9.00">sort&#45;numbers.spec.js</text>
</a>
</g>
</g>
<!-- src/sort&#45;numbers/example&#45;built&#45;in&#45;sort/sort&#45;numbers.spec.js&#45;&gt;src/sort&#45;numbers/example&#45;built&#45;in&#45;sort/sort&#45;numbers.js -->
<g id="edge1" class="edge">
<title>src/sort&#45;numbers/example&#45;built&#45;in&#45;sort/sort&#45;numbers.spec.js&#45;&gt;src/sort&#45;numbers/example&#45;built&#45;in&#45;sort/sort&#45;numbers.js</title>
<path fill="none" stroke="#000000" stroke-width="2" stroke-opacity="0.200000" d="M131.46,-41C133.77,-41 136.09,-41 138.39,-41"/>
<polygon fill="#000000" fill-opacity="0.200000" stroke="#000000" stroke-width="2" stroke-opacity="0.200000" points="138.42,-43.1 144.42,-41 138.42,-38.9 138.42,-43.1"/>
</g>
</g>
</svg>
