<?xml version="1.0" encoding="UTF-8" standalone="no"?>
<!DOCTYPE svg PUBLIC "-//W3C//DTD SVG 1.1//EN"
 "http://www.w3.org/Graphics/SVG/1.1/DTD/svg11.dtd">
<!-- Generated by graphviz version 2.44.0 (20200408.0750)
 -->
<!-- Title: dependency&#45;cruiser output Pages: 1 -->
<svg width="263pt" height="243pt"
 viewBox="0.00 0.00 262.51 243.00" xmlns="http://www.w3.org/2000/svg" xmlns:xlink="http://www.w3.org/1999/xlink">
<g id="graph0" class="graph" transform="scale(1 1) rotate(0) translate(4 239)">
<title>dependency&#45;cruiser output</title>
<polygon fill="white" stroke="transparent" points="-4,4 -4,-239 258.51,-239 258.51,4 -4,4"/>
<g id="clust1" class="cluster">
<title>cluster_src</title>
<path fill="#ffffff" stroke="black" stroke-width="2" d="M20,-8C20,-8 234.51,-8 234.51,-8 240.51,-8 246.51,-14 246.51,-20 246.51,-20 246.51,-215 246.51,-215 246.51,-221 240.51,-227 234.51,-227 234.51,-227 20,-227 20,-227 14,-227 8,-221 8,-215 8,-215 8,-20 8,-20 8,-14 14,-8 20,-8"/>
<text text-anchor="middle" x="127.25" y="-214.9" font-family="Helvetica,sans-Serif" font-weight="bold" font-size="9.00">src</text>
</g>
<g id="clust2" class="cluster">
<title>cluster_src/intersection</title>
<path fill="#ffffff" stroke="black" stroke-width="2" d="M31.5,-112C31.5,-112 223.01,-112 223.01,-112 229.01,-112 235.01,-118 235.01,-124 235.01,-124 235.01,-188 235.01,-188 235.01,-194 229.01,-200 223.01,-200 223.01,-200 31.5,-200 31.5,-200 25.5,-200 19.5,-194 19.5,-188 19.5,-188 19.5,-124 19.5,-124 19.5,-118 25.5,-112 31.5,-112"/>
<text text-anchor="middle" x="127.25" y="-187.9" font-family="Helvetica,sans-Serif" font-weight="bold" font-size="9.00">intersection</text>
</g>
<g id="clust3" class="cluster">
<title>cluster_src/intersection/intersection&#45;solution&#45;tugba</title>
<path fill="#ffffff" stroke="black" stroke-width="2" d="M39.5,-120C39.5,-120 215.01,-120 215.01,-120 221.01,-120 227.01,-126 227.01,-132 227.01,-132 227.01,-161 227.01,-161 227.01,-167 221.01,-173 215.01,-173 215.01,-173 39.5,-173 39.5,-173 33.5,-173 27.5,-167 27.5,-161 27.5,-161 27.5,-132 27.5,-132 27.5,-126 33.5,-120 39.5,-120"/>
<text text-anchor="middle" x="127.25" y="-160.9" font-family="Helvetica,sans-Serif" font-weight="bold" font-size="9.00">intersection&#45;solution&#45;tugba</text>
</g>
<g id="clust4" class="cluster">
<title>cluster_src/sort&#45;numbers</title>
<path fill="#ffffff" stroke="black" stroke-width="2" d="M28,-16C28,-16 226.51,-16 226.51,-16 232.51,-16 238.51,-22 238.51,-28 238.51,-28 238.51,-92 238.51,-92 238.51,-98 232.51,-104 226.51,-104 226.51,-104 28,-104 28,-104 22,-104 16,-98 16,-92 16,-92 16,-28 16,-28 16,-22 22,-16 28,-16"/>
<text text-anchor="middle" x="127.25" y="-91.9" font-family="Helvetica,sans-Serif" font-weight="bold" font-size="9.00">sort&#45;numbers</text>
</g>
<g id="clust5" class="cluster">
<title>cluster_src/sort&#45;numbers/example&#45;built&#45;in&#45;sort</title>
<path fill="#ffffff" stroke="black" stroke-width="2" d="M36,-24C36,-24 218.51,-24 218.51,-24 224.51,-24 230.51,-30 230.51,-36 230.51,-36 230.51,-65 230.51,-65 230.51,-71 224.51,-77 218.51,-77 218.51,-77 36,-77 36,-77 30,-77 24,-71 24,-65 24,-65 24,-36 24,-36 24,-30 30,-24 36,-24"/>
<text text-anchor="middle" x="127.25" y="-64.9" font-family="Helvetica,sans-Serif" font-weight="bold" font-size="9.00">example&#45;built&#45;in&#45;sort</text>
</g>
<!-- src/intersection/intersection&#45;solution&#45;tugba/intersection.js -->
<g id="node1" class="node">
<title>src/intersection/intersection&#45;solution&#45;tugba/intersection.js</title>
<g id="a_node1"><a xlink:href="../src/intersection/intersection-solution-tugba/intersection.js" xlink:title="intersection.js">
<path fill="#ffffcc" stroke="black" d="M212.81,-146.3C212.81,-146.3 154.2,-146.3 154.2,-146.3 151.1,-146.3 148,-143.2 148,-140.1 148,-140.1 148,-133.9 148,-133.9 148,-130.8 151.1,-127.7 154.2,-127.7 154.2,-127.7 212.81,-127.7 212.81,-127.7 215.91,-127.7 219.01,-130.8 219.01,-133.9 219.01,-133.9 219.01,-140.1 219.01,-140.1 219.01,-143.2 215.91,-146.3 212.81,-146.3"/>
<text text-anchor="middle" x="183.51" y="-134.3" font-family="Helvetica,sans-Serif" font-size="9.00">intersection.js</text>
</a>
</g>
</g>
<!-- src/intersection/intersection&#45;solution&#45;tugba/intersection.spec.js -->
<g id="node2" class="node">
<title>src/intersection/intersection&#45;solution&#45;tugba/intersection.spec.js</title>
<g id="a_node2"><a xlink:href="../src/intersection/intersection-solution-tugba/intersection.spec.js" xlink:title="intersection.spec.js">
<path fill="#ffffcc" stroke="black" d="M121.57,-146.3C121.57,-146.3 41.94,-146.3 41.94,-146.3 38.84,-146.3 35.74,-143.2 35.74,-140.1 35.74,-140.1 35.74,-133.9 35.74,-133.9 35.74,-130.8 38.84,-127.7 41.94,-127.7 41.94,-127.7 121.57,-127.7 121.57,-127.7 124.67,-127.7 127.77,-130.8 127.77,-133.9 127.77,-133.9 127.77,-140.1 127.77,-140.1 127.77,-143.2 124.67,-146.3 121.57,-146.3"/>
<text text-anchor="middle" x="81.75" y="-134.3" font-family="Helvetica,sans-Serif" font-size="9.00">intersection.spec.js</text>
</a>
</g>
</g>
<!-- src/intersection/intersection&#45;solution&#45;tugba/intersection.spec.js&#45;&gt;src/intersection/intersection&#45;solution&#45;tugba/intersection.js -->
<g id="edge1" class="edge">
<title>src/intersection/intersection&#45;solution&#45;tugba/intersection.spec.js&#45;&gt;src/intersection/intersection&#45;solution&#45;tugba/intersection.js</title>
<path fill="none" stroke="#000000" stroke-width="2" stroke-opacity="0.200000" d="M127.96,-137C132.57,-137 137.23,-137 141.78,-137"/>
<polygon fill="#000000" fill-opacity="0.200000" stroke="#000000" stroke-width="2" stroke-opacity="0.200000" points="141.91,-139.1 147.91,-137 141.91,-134.9 141.91,-139.1"/>
</g>
<!-- src/sort&#45;numbers/example&#45;built&#45;in&#45;sort/sort&#45;numbers.js -->
<g id="node3" class="node">
<title>src/sort&#45;numbers/example&#45;built&#45;in&#45;sort/sort&#45;numbers.js</title>
<g id="a_node3"><a xlink:href="../src/sort-numbers/example-built-in-sort/sort-numbers.js" xlink:title="sort&#45;numbers.js">
<path fill="#ffffcc" stroke="black" d="M216.3,-50.3C216.3,-50.3 150.71,-50.3 150.71,-50.3 147.61,-50.3 144.51,-47.2 144.51,-44.1 144.51,-44.1 144.51,-37.9 144.51,-37.9 144.51,-34.8 147.61,-31.7 150.71,-31.7 150.71,-31.7 216.3,-31.7 216.3,-31.7 219.4,-31.7 222.51,-34.8 222.51,-37.9 222.51,-37.9 222.51,-44.1 222.51,-44.1 222.51,-47.2 219.4,-50.3 216.3,-50.3"/>
<text text-anchor="middle" x="183.51" y="-38.3" font-family="Helvetica,sans-Serif" font-size="9.00">sort&#45;numbers.js</text>
</a>
</g>
</g>
<!-- src/sort&#45;numbers/example&#45;built&#45;in&#45;sort/sort&#45;numbers.spec.js -->
<g id="node4" class="node">
<title>src/sort&#45;numbers/example&#45;built&#45;in&#45;sort/sort&#45;numbers.spec.js</title>
<g id="a_node4"><a xlink:href="../src/sort-numbers/example-built-in-sort/sort-numbers.spec.js" xlink:title="sort&#45;numbers.spec.js">
<path fill="#ffffcc" stroke="black" d="M125.06,-50.3C125.06,-50.3 38.45,-50.3 38.45,-50.3 35.35,-50.3 32.25,-47.2 32.25,-44.1 32.25,-44.1 32.25,-37.9 32.25,-37.9 32.25,-34.8 35.35,-31.7 38.45,-31.7 38.45,-31.7 125.06,-31.7 125.06,-31.7 128.16,-31.7 131.26,-34.8 131.26,-37.9 131.26,-37.9 131.26,-44.1 131.26,-44.1 131.26,-47.2 128.16,-50.3 125.06,-50.3"/>
<text text-anchor="middle" x="81.75" y="-38.3" font-family="Helvetica,sans-Serif" font-size="9.00">sort&#45;numbers.spec.js</text>
</a>
</g>
</g>
<!-- src/sort&#45;numbers/example&#45;built&#45;in&#45;sort/sort&#45;numbers.spec.js&#45;&gt;src/sort&#45;numbers/example&#45;built&#45;in&#45;sort/sort&#45;numbers.js -->
<g id="edge2" class="edge">
<title>src/sort&#45;numbers/example&#45;built&#45;in&#45;sort/sort&#45;numbers.spec.js&#45;&gt;src/sort&#45;numbers/example&#45;built&#45;in&#45;sort/sort&#45;numbers.js</title>
<path fill="none" stroke="#000000" stroke-width="2" stroke-opacity="0.200000" d="M131.46,-41C133.77,-41 136.09,-41 138.39,-41"/>
<polygon fill="#000000" fill-opacity="0.200000" stroke="#000000" stroke-width="2" stroke-opacity="0.200000" points="138.42,-43.1 144.42,-41 138.42,-38.9 138.42,-43.1"/>
</g>
</g>
</svg>
