<?xml version="1.0" encoding="UTF-8" standalone="no"?>
<!DOCTYPE svg PUBLIC "-//W3C//DTD SVG 1.1//EN"
 "http://www.w3.org/Graphics/SVG/1.1/DTD/svg11.dtd">
<!-- Generated by graphviz version 2.44.0 (20200408.0750)
 -->
<!-- Title: dependency&#45;cruiser output Pages: 1 -->
<svg width="270pt" height="243pt"
 viewBox="0.00 0.00 269.52 243.00" xmlns="http://www.w3.org/2000/svg" xmlns:xlink="http://www.w3.org/1999/xlink">
<g id="graph0" class="graph" transform="scale(1 1) rotate(0) translate(4 239)">
<title>dependency&#45;cruiser output</title>
<polygon fill="white" stroke="transparent" points="-4,4 -4,-239 265.52,-239 265.52,4 -4,4"/>
<g id="clust1" class="cluster">
<title>cluster_src</title>
<path fill="#ffffff" stroke="black" stroke-width="2" d="M20,-8C20,-8 241.52,-8 241.52,-8 247.52,-8 253.52,-14 253.52,-20 253.52,-20 253.52,-215 253.52,-215 253.52,-221 247.52,-227 241.52,-227 241.52,-227 20,-227 20,-227 14,-227 8,-221 8,-215 8,-215 8,-20 8,-20 8,-14 14,-8 20,-8"/>
<text text-anchor="middle" x="130.76" y="-214.9" font-family="Helvetica,sans-Serif" font-weight="bold" font-size="9.00">src</text>
</g>
<g id="clust2" class="cluster">
<title>cluster_src/deep flat</title>
<path fill="#ffffff" stroke="black" stroke-width="2" d="M28,-112C28,-112 233.52,-112 233.52,-112 239.52,-112 245.52,-118 245.52,-124 245.52,-124 245.52,-188 245.52,-188 245.52,-194 239.52,-200 233.52,-200 233.52,-200 28,-200 28,-200 22,-200 16,-194 16,-188 16,-188 16,-124 16,-124 16,-118 22,-112 28,-112"/>
<text text-anchor="middle" x="130.76" y="-187.9" font-family="Helvetica,sans-Serif" font-weight="bold" font-size="9.00">deep flat</text>
</g>
<g id="clust3" class="cluster">
<title>cluster_src/deep flat/flat array</title>
<path fill="#ffffff" stroke="black" stroke-width="2" d="M36,-120C36,-120 225.52,-120 225.52,-120 231.52,-120 237.52,-126 237.52,-132 237.52,-132 237.52,-161 237.52,-161 237.52,-167 231.52,-173 225.52,-173 225.52,-173 36,-173 36,-173 30,-173 24,-167 24,-161 24,-161 24,-132 24,-132 24,-126 30,-120 36,-120"/>
<text text-anchor="middle" x="130.76" y="-160.9" font-family="Helvetica,sans-Serif" font-weight="bold" font-size="9.00">flat array</text>
</g>
<g id="clust4" class="cluster">
<title>cluster_src/sort&#45;numbers</title>
<path fill="#ffffff" stroke="black" stroke-width="2" d="M29.75,-16C29.75,-16 231.77,-16 231.77,-16 237.77,-16 243.77,-22 243.77,-28 243.77,-28 243.77,-92 243.77,-92 243.77,-98 237.77,-104 231.77,-104 231.77,-104 29.75,-104 29.75,-104 23.75,-104 17.75,-98 17.75,-92 17.75,-92 17.75,-28 17.75,-28 17.75,-22 23.75,-16 29.75,-16"/>
<text text-anchor="middle" x="130.76" y="-91.9" font-family="Helvetica,sans-Serif" font-weight="bold" font-size="9.00">sort&#45;numbers</text>
</g>
<g id="clust5" class="cluster">
<title>cluster_src/sort&#45;numbers/example&#45;built&#45;in&#45;sort</title>
<path fill="#ffffff" stroke="black" stroke-width="2" d="M37.75,-24C37.75,-24 223.77,-24 223.77,-24 229.77,-24 235.77,-30 235.77,-36 235.77,-36 235.77,-65 235.77,-65 235.77,-71 229.77,-77 223.77,-77 223.77,-77 37.75,-77 37.75,-77 31.75,-77 25.75,-71 25.75,-65 25.75,-65 25.75,-36 25.75,-36 25.75,-30 31.75,-24 37.75,-24"/>
<text text-anchor="middle" x="130.76" y="-64.9" font-family="Helvetica,sans-Serif" font-weight="bold" font-size="9.00">example&#45;built&#45;in&#45;sort</text>
</g>
<!-- src/deep flat/flat array/solution&#45;name.js -->
<g id="node1" class="node">
<title>src/deep flat/flat array/solution&#45;name.js</title>
<g id="a_node1"><a xlink:href="../src/deep flat/flat array/solution-name.js" xlink:title="solution&#45;name.js">
<path fill="#ffffcc" stroke="black" d="M223.08,-146.3C223.08,-146.3 154.46,-146.3 154.46,-146.3 151.36,-146.3 148.26,-143.2 148.26,-140.1 148.26,-140.1 148.26,-133.9 148.26,-133.9 148.26,-130.8 151.36,-127.7 154.46,-127.7 154.46,-127.7 223.08,-127.7 223.08,-127.7 226.18,-127.7 229.28,-130.8 229.28,-133.9 229.28,-133.9 229.28,-140.1 229.28,-140.1 229.28,-143.2 226.18,-146.3 223.08,-146.3"/>
<text text-anchor="middle" x="188.77" y="-134.3" font-family="Helvetica,sans-Serif" font-size="9.00">solution&#45;name.js</text>
</a>
</g>
</g>
<!-- src/deep flat/flat array/solution&#45;name.spec.js -->
<g id="node2" class="node">
<title>src/deep flat/flat array/solution&#45;name.spec.js</title>
<g id="a_node2"><a xlink:href="../src/deep flat/flat array/solution-name.spec.js" xlink:title="solution&#45;name.spec.js">
<path fill="#ffffcc" stroke="black" d="M128.82,-146.3C128.82,-146.3 38.19,-146.3 38.19,-146.3 35.09,-146.3 31.99,-143.2 31.99,-140.1 31.99,-140.1 31.99,-133.9 31.99,-133.9 31.99,-130.8 35.09,-127.7 38.19,-127.7 38.19,-127.7 128.82,-127.7 128.82,-127.7 131.92,-127.7 135.02,-130.8 135.02,-133.9 135.02,-133.9 135.02,-140.1 135.02,-140.1 135.02,-143.2 131.92,-146.3 128.82,-146.3"/>
<text text-anchor="middle" x="83.51" y="-134.3" font-family="Helvetica,sans-Serif" font-size="9.00">solution&#45;name.spec.js</text>
</a>
</g>
</g>
<!-- src/deep flat/flat array/solution&#45;name.spec.js&#45;&gt;src/deep flat/flat array/solution&#45;name.js -->
<g id="edge1" class="edge">
<title>src/deep flat/flat array/solution&#45;name.spec.js&#45;&gt;src/deep flat/flat array/solution&#45;name.js</title>
<path fill="none" stroke="#000000" stroke-width="2" stroke-opacity="0.200000" d="M135.23,-137C137.37,-137 139.52,-137 141.65,-137"/>
<polygon fill="#000000" fill-opacity="0.200000" stroke="#000000" stroke-width="2" stroke-opacity="0.200000" points="141.99,-139.1 147.99,-137 141.99,-134.9 141.99,-139.1"/>
</g>
<!-- src/sort&#45;numbers/example&#45;built&#45;in&#45;sort/sort&#45;numbers.js -->
<g id="node3" class="node">
<title>src/sort&#45;numbers/example&#45;built&#45;in&#45;sort/sort&#45;numbers.js</title>
<g id="a_node3"><a xlink:href="../src/sort-numbers/example-built-in-sort/sort-numbers.js" xlink:title="sort&#45;numbers.js">
<path fill="#ffffcc" stroke="black" d="M221.57,-50.3C221.57,-50.3 155.97,-50.3 155.97,-50.3 152.87,-50.3 149.77,-47.2 149.77,-44.1 149.77,-44.1 149.77,-37.9 149.77,-37.9 149.77,-34.8 152.87,-31.7 155.97,-31.7 155.97,-31.7 221.57,-31.7 221.57,-31.7 224.67,-31.7 227.77,-34.8 227.77,-37.9 227.77,-37.9 227.77,-44.1 227.77,-44.1 227.77,-47.2 224.67,-50.3 221.57,-50.3"/>
<text text-anchor="middle" x="188.77" y="-38.3" font-family="Helvetica,sans-Serif" font-size="9.00">sort&#45;numbers.js</text>
</a>
</g>
</g>
<!-- src/sort&#45;numbers/example&#45;built&#45;in&#45;sort/sort&#45;numbers.spec.js -->
<g id="node4" class="node">
<title>src/sort&#45;numbers/example&#45;built&#45;in&#45;sort/sort&#45;numbers.spec.js</title>
<g id="a_node4"><a xlink:href="../src/sort-numbers/example-built-in-sort/sort-numbers.spec.js" xlink:title="sort&#45;numbers.spec.js">
<path fill="#ffffcc" stroke="black" d="M126.81,-50.3C126.81,-50.3 40.2,-50.3 40.2,-50.3 37.1,-50.3 34,-47.2 34,-44.1 34,-44.1 34,-37.9 34,-37.9 34,-34.8 37.1,-31.7 40.2,-31.7 40.2,-31.7 126.81,-31.7 126.81,-31.7 129.91,-31.7 133.02,-34.8 133.02,-37.9 133.02,-37.9 133.02,-44.1 133.02,-44.1 133.02,-47.2 129.91,-50.3 126.81,-50.3"/>
<text text-anchor="middle" x="83.51" y="-38.3" font-family="Helvetica,sans-Serif" font-size="9.00">sort&#45;numbers.spec.js</text>
</a>
</g>
</g>
<!-- src/sort&#45;numbers/example&#45;built&#45;in&#45;sort/sort&#45;numbers.spec.js&#45;&gt;src/sort&#45;numbers/example&#45;built&#45;in&#45;sort/sort&#45;numbers.js -->
<g id="edge2" class="edge">
<title>src/sort&#45;numbers/example&#45;built&#45;in&#45;sort/sort&#45;numbers.spec.js&#45;&gt;src/sort&#45;numbers/example&#45;built&#45;in&#45;sort/sort&#45;numbers.js</title>
<path fill="none" stroke="#000000" stroke-width="2" stroke-opacity="0.200000" d="M133.11,-41C136.58,-41 140.06,-41 143.5,-41"/>
<polygon fill="#000000" fill-opacity="0.200000" stroke="#000000" stroke-width="2" stroke-opacity="0.200000" points="143.63,-43.1 149.63,-41 143.63,-38.9 143.63,-43.1"/>
</g>
</g>
</svg>
