<?xml version="1.0" encoding="UTF-8" standalone="no"?>
<!DOCTYPE svg PUBLIC "-//W3C//DTD SVG 1.1//EN"
 "http://www.w3.org/Graphics/SVG/1.1/DTD/svg11.dtd">
<!-- Generated by graphviz version 2.44.0 (20200408.0750)
 -->
<!-- Title: dependency&#45;cruiser output Pages: 1 -->
<svg width="310pt" height="466pt"
 viewBox="0.00 0.00 309.53 466.00" xmlns="http://www.w3.org/2000/svg" xmlns:xlink="http://www.w3.org/1999/xlink">
<g id="graph0" class="graph" transform="scale(1 1) rotate(0) translate(4 462)">
<title>dependency&#45;cruiser output</title>
<polygon fill="white" stroke="transparent" points="-4,4 -4,-462 305.53,-462 305.53,4 -4,4"/>
<g id="clust1" class="cluster">
<title>cluster_src</title>
<path fill="#ffffff" stroke="black" stroke-width="2" d="M20,-8C20,-8 281.53,-8 281.53,-8 287.53,-8 293.53,-14 293.53,-20 293.53,-20 293.53,-438 293.53,-438 293.53,-444 287.53,-450 281.53,-450 281.53,-450 20,-450 20,-450 14,-450 8,-444 8,-438 8,-438 8,-20 8,-20 8,-14 14,-8 20,-8"/>
<text text-anchor="middle" x="150.76" y="-437.9" font-family="Helvetica,sans-Serif" font-weight="bold" font-size="9.00">src</text>
</g>
<g id="clust2" class="cluster">
<title>cluster_src/deep&#45;flat</title>
<path fill="#ffffff" stroke="black" stroke-width="2" d="M38,-335C38,-335 263.52,-335 263.52,-335 269.52,-335 275.52,-341 275.52,-347 275.52,-347 275.52,-411 275.52,-411 275.52,-417 269.52,-423 263.52,-423 263.52,-423 38,-423 38,-423 32,-423 26,-417 26,-411 26,-411 26,-347 26,-347 26,-341 32,-335 38,-335"/>
<text text-anchor="middle" x="150.76" y="-410.9" font-family="Helvetica,sans-Serif" font-weight="bold" font-size="9.00">deep&#45;flat</text>
</g>
<g id="clust3" class="cluster">
<title>cluster_src/deep&#45;flat/solution</title>
<path fill="#ffffff" stroke="black" stroke-width="2" d="M46,-343C46,-343 255.52,-343 255.52,-343 261.52,-343 267.52,-349 267.52,-355 267.52,-355 267.52,-384 267.52,-384 267.52,-390 261.52,-396 255.52,-396 255.52,-396 46,-396 46,-396 40,-396 34,-390 34,-384 34,-384 34,-355 34,-355 34,-349 40,-343 46,-343"/>
<text text-anchor="middle" x="150.76" y="-383.9" font-family="Helvetica,sans-Serif" font-weight="bold" font-size="9.00">solution</text>
</g>
<g id="clust4" class="cluster">
<title>cluster_src/difference</title>
<path fill="#ffffff" stroke="black" stroke-width="2" d="M38,-239C38,-239 263.52,-239 263.52,-239 269.52,-239 275.52,-245 275.52,-251 275.52,-251 275.52,-315 275.52,-315 275.52,-321 269.52,-327 263.52,-327 263.52,-327 38,-327 38,-327 32,-327 26,-321 26,-315 26,-315 26,-251 26,-251 26,-245 32,-239 38,-239"/>
<text text-anchor="middle" x="150.76" y="-314.9" font-family="Helvetica,sans-Serif" font-weight="bold" font-size="9.00">difference</text>
</g>
<g id="clust5" class="cluster">
<title>cluster_src/difference/solution</title>
<path fill="#ffffff" stroke="black" stroke-width="2" d="M46,-247C46,-247 255.52,-247 255.52,-247 261.52,-247 267.52,-253 267.52,-259 267.52,-259 267.52,-288 267.52,-288 267.52,-294 261.52,-300 255.52,-300 255.52,-300 46,-300 46,-300 40,-300 34,-294 34,-288 34,-288 34,-259 34,-259 34,-253 40,-247 46,-247"/>
<text text-anchor="middle" x="150.76" y="-287.9" font-family="Helvetica,sans-Serif" font-weight="bold" font-size="9.00">solution</text>
</g>
<g id="clust6" class="cluster">
<title>cluster_src/sort&#45;numbers</title>
<path fill="#ffffff" stroke="black" stroke-width="2" d="M39.75,-143C39.75,-143 261.77,-143 261.77,-143 267.77,-143 273.77,-149 273.77,-155 273.77,-155 273.77,-219 273.77,-219 273.77,-225 267.77,-231 261.77,-231 261.77,-231 39.75,-231 39.75,-231 33.75,-231 27.75,-225 27.75,-219 27.75,-219 27.75,-155 27.75,-155 27.75,-149 33.75,-143 39.75,-143"/>
<text text-anchor="middle" x="150.76" y="-218.9" font-family="Helvetica,sans-Serif" font-weight="bold" font-size="9.00">sort&#45;numbers</text>
</g>
<g id="clust7" class="cluster">
<title>cluster_src/sort&#45;numbers/example&#45;built&#45;in&#45;sort</title>
<path fill="#ffffff" stroke="black" stroke-width="2" d="M47.75,-151C47.75,-151 253.77,-151 253.77,-151 259.77,-151 265.77,-157 265.77,-163 265.77,-163 265.77,-192 265.77,-192 265.77,-198 259.77,-204 253.77,-204 253.77,-204 47.75,-204 47.75,-204 41.75,-204 35.75,-198 35.75,-192 35.75,-192 35.75,-163 35.75,-163 35.75,-157 41.75,-151 47.75,-151"/>
<text text-anchor="middle" x="150.76" y="-191.9" font-family="Helvetica,sans-Serif" font-weight="bold" font-size="9.00">example&#45;built&#45;in&#45;sort</text>
</g>
<g id="clust8" class="cluster">
<title>cluster_src/split&#45;object</title>
<path fill="#ffffff" stroke="black" stroke-width="2" d="M28,-16C28,-16 273.53,-16 273.53,-16 279.53,-16 285.53,-22 285.53,-28 285.53,-28 285.53,-123 285.53,-123 285.53,-129 279.53,-135 273.53,-135 273.53,-135 28,-135 28,-135 22,-135 16,-129 16,-123 16,-123 16,-28 16,-28 16,-22 22,-16 28,-16"/>
<text text-anchor="middle" x="150.76" y="-122.9" font-family="Helvetica,sans-Serif" font-weight="bold" font-size="9.00">split&#45;object</text>
</g>
<g id="clust9" class="cluster">
<title>cluster_src/split&#45;object/solution&#45;dot&#45;entries</title>
<path fill="#ffffff" stroke="black" stroke-width="2" d="M36,-24C36,-24 265.53,-24 265.53,-24 271.53,-24 277.53,-30 277.53,-36 277.53,-36 277.53,-96 277.53,-96 277.53,-102 271.53,-108 265.53,-108 265.53,-108 36,-108 36,-108 30,-108 24,-102 24,-96 24,-96 24,-36 24,-36 24,-30 30,-24 36,-24"/>
<text text-anchor="middle" x="150.76" y="-95.9" font-family="Helvetica,sans-Serif" font-weight="bold" font-size="9.00">solution&#45;dot&#45;entries</text>
</g>
<!-- src/deep&#45;flat/solution/solution&#45;name.js -->
<g id="node1" class="node">
<title>src/deep&#45;flat/solution/solution&#45;name.js</title>
<g id="a_node1"><a xlink:href="../src/deep-flat/solution/solution-name.js" xlink:title="solution&#45;name.js">
<path fill="#ffffcc" stroke="black" d="M253.08,-369.3C253.08,-369.3 184.46,-369.3 184.46,-369.3 181.36,-369.3 178.26,-366.2 178.26,-363.1 178.26,-363.1 178.26,-356.9 178.26,-356.9 178.26,-353.8 181.36,-350.7 184.46,-350.7 184.46,-350.7 253.08,-350.7 253.08,-350.7 256.18,-350.7 259.28,-353.8 259.28,-356.9 259.28,-356.9 259.28,-363.1 259.28,-363.1 259.28,-366.2 256.18,-369.3 253.08,-369.3"/>
<text text-anchor="middle" x="218.77" y="-357.3" font-family="Helvetica,sans-Serif" font-size="9.00">solution&#45;name.js</text>
</a>
</g>
</g>
<!-- src/deep&#45;flat/solution/solution&#45;name.spec.js -->
<g id="node2" class="node">
<title>src/deep&#45;flat/solution/solution&#45;name.spec.js</title>
<g id="a_node2"><a xlink:href="../src/deep-flat/solution/solution-name.spec.js" xlink:title="solution&#45;name.spec.js">
<path fill="#ffffcc" stroke="black" d="M138.82,-369.3C138.82,-369.3 48.19,-369.3 48.19,-369.3 45.09,-369.3 41.99,-366.2 41.99,-363.1 41.99,-363.1 41.99,-356.9 41.99,-356.9 41.99,-353.8 45.09,-350.7 48.19,-350.7 48.19,-350.7 138.82,-350.7 138.82,-350.7 141.92,-350.7 145.02,-353.8 145.02,-356.9 145.02,-356.9 145.02,-363.1 145.02,-363.1 145.02,-366.2 141.92,-369.3 138.82,-369.3"/>
<text text-anchor="middle" x="93.51" y="-357.3" font-family="Helvetica,sans-Serif" font-size="9.00">solution&#45;name.spec.js</text>
</a>
</g>
</g>
<!-- src/deep&#45;flat/solution/solution&#45;name.spec.js&#45;&gt;src/deep&#45;flat/solution/solution&#45;name.js -->
<g id="edge1" class="edge">
<title>src/deep&#45;flat/solution/solution&#45;name.spec.js&#45;&gt;src/deep&#45;flat/solution/solution&#45;name.js</title>
<path fill="none" stroke="#000000" stroke-width="2" stroke-opacity="0.200000" d="M145.36,-360C154.11,-360 163.16,-360 171.77,-360"/>
<polygon fill="#000000" fill-opacity="0.200000" stroke="#000000" stroke-width="2" stroke-opacity="0.200000" points="171.96,-362.1 177.96,-360 171.96,-357.9 171.96,-362.1"/>
</g>
<!-- src/difference/solution/solution&#45;name.js -->
<g id="node3" class="node">
<title>src/difference/solution/solution&#45;name.js</title>
<g id="a_node3"><a xlink:href="../src/difference/solution/solution-name.js" xlink:title="solution&#45;name.js">
<path fill="#ffffcc" stroke="black" d="M253.08,-273.3C253.08,-273.3 184.46,-273.3 184.46,-273.3 181.36,-273.3 178.26,-270.2 178.26,-267.1 178.26,-267.1 178.26,-260.9 178.26,-260.9 178.26,-257.8 181.36,-254.7 184.46,-254.7 184.46,-254.7 253.08,-254.7 253.08,-254.7 256.18,-254.7 259.28,-257.8 259.28,-260.9 259.28,-260.9 259.28,-267.1 259.28,-267.1 259.28,-270.2 256.18,-273.3 253.08,-273.3"/>
<text text-anchor="middle" x="218.77" y="-261.3" font-family="Helvetica,sans-Serif" font-size="9.00">solution&#45;name.js</text>
</a>
</g>
</g>
<!-- src/difference/solution/solution&#45;name.spec.js -->
<g id="node4" class="node">
<title>src/difference/solution/solution&#45;name.spec.js</title>
<g id="a_node4"><a xlink:href="../src/difference/solution/solution-name.spec.js" xlink:title="solution&#45;name.spec.js">
<path fill="#ffffcc" stroke="black" d="M138.82,-273.3C138.82,-273.3 48.19,-273.3 48.19,-273.3 45.09,-273.3 41.99,-270.2 41.99,-267.1 41.99,-267.1 41.99,-260.9 41.99,-260.9 41.99,-257.8 45.09,-254.7 48.19,-254.7 48.19,-254.7 138.82,-254.7 138.82,-254.7 141.92,-254.7 145.02,-257.8 145.02,-260.9 145.02,-260.9 145.02,-267.1 145.02,-267.1 145.02,-270.2 141.92,-273.3 138.82,-273.3"/>
<text text-anchor="middle" x="93.51" y="-261.3" font-family="Helvetica,sans-Serif" font-size="9.00">solution&#45;name.spec.js</text>
</a>
</g>
</g>
<!-- src/difference/solution/solution&#45;name.spec.js&#45;&gt;src/difference/solution/solution&#45;name.js -->
<g id="edge2" class="edge">
<title>src/difference/solution/solution&#45;name.spec.js&#45;&gt;src/difference/solution/solution&#45;name.js</title>
<path fill="none" stroke="#000000" stroke-width="2" stroke-opacity="0.200000" d="M145.36,-264C154.11,-264 163.16,-264 171.77,-264"/>
<polygon fill="#000000" fill-opacity="0.200000" stroke="#000000" stroke-width="2" stroke-opacity="0.200000" points="171.96,-266.1 177.96,-264 171.96,-261.9 171.96,-266.1"/>
</g>
<!-- src/sort&#45;numbers/example&#45;built&#45;in&#45;sort/sort&#45;numbers.js -->
<g id="node5" class="node">
<title>src/sort&#45;numbers/example&#45;built&#45;in&#45;sort/sort&#45;numbers.js</title>
<g id="a_node5"><a xlink:href="../src/sort-numbers/example-built-in-sort/sort-numbers.js" xlink:title="sort&#45;numbers.js">
<path fill="#ffffcc" stroke="black" d="M251.57,-177.3C251.57,-177.3 185.97,-177.3 185.97,-177.3 182.87,-177.3 179.77,-174.2 179.77,-171.1 179.77,-171.1 179.77,-164.9 179.77,-164.9 179.77,-161.8 182.87,-158.7 185.97,-158.7 185.97,-158.7 251.57,-158.7 251.57,-158.7 254.67,-158.7 257.77,-161.8 257.77,-164.9 257.77,-164.9 257.77,-171.1 257.77,-171.1 257.77,-174.2 254.67,-177.3 251.57,-177.3"/>
<text text-anchor="middle" x="218.77" y="-165.3" font-family="Helvetica,sans-Serif" font-size="9.00">sort&#45;numbers.js</text>
</a>
</g>
</g>
<!-- src/sort&#45;numbers/example&#45;built&#45;in&#45;sort/sort&#45;numbers.spec.js -->
<g id="node6" class="node">
<title>src/sort&#45;numbers/example&#45;built&#45;in&#45;sort/sort&#45;numbers.spec.js</title>
<g id="a_node6"><a xlink:href="../src/sort-numbers/example-built-in-sort/sort-numbers.spec.js" xlink:title="sort&#45;numbers.spec.js">
<path fill="#ffffcc" stroke="black" d="M136.82,-177.3C136.82,-177.3 50.2,-177.3 50.2,-177.3 47.1,-177.3 44,-174.2 44,-171.1 44,-171.1 44,-164.9 44,-164.9 44,-161.8 47.1,-158.7 50.2,-158.7 50.2,-158.7 136.82,-158.7 136.82,-158.7 139.92,-158.7 143.02,-161.8 143.02,-164.9 143.02,-164.9 143.02,-171.1 143.02,-171.1 143.02,-174.2 139.92,-177.3 136.82,-177.3"/>
<text text-anchor="middle" x="93.51" y="-165.3" font-family="Helvetica,sans-Serif" font-size="9.00">sort&#45;numbers.spec.js</text>
</a>
</g>
</g>
<!-- src/sort&#45;numbers/example&#45;built&#45;in&#45;sort/sort&#45;numbers.spec.js&#45;&gt;src/sort&#45;numbers/example&#45;built&#45;in&#45;sort/sort&#45;numbers.js -->
<g id="edge3" class="edge">
<title>src/sort&#45;numbers/example&#45;built&#45;in&#45;sort/sort&#45;numbers.spec.js&#45;&gt;src/sort&#45;numbers/example&#45;built&#45;in&#45;sort/sort&#45;numbers.js</title>
<path fill="none" stroke="#000000" stroke-width="2" stroke-opacity="0.200000" d="M143.22,-168C153.26,-168 163.76,-168 173.62,-168"/>
<polygon fill="#000000" fill-opacity="0.200000" stroke="#000000" stroke-width="2" stroke-opacity="0.200000" points="173.67,-170.1 179.67,-168 173.67,-165.9 173.67,-170.1"/>
</g>
<!-- src/split&#45;object/solution&#45;dot&#45;entries/Boludez.js -->
<g id="node7" class="node">
<title>src/split&#45;object/solution&#45;dot&#45;entries/Boludez.js</title>
<g id="a_node7"><a xlink:href="../src/split-object/solution-dot-entries/Boludez.js" xlink:title="Boludez.js">
<path fill="#ccffcc" stroke="black" d="M115.82,-81.3C115.82,-81.3 71.2,-81.3 71.2,-81.3 68.1,-81.3 65,-78.2 65,-75.1 65,-75.1 65,-68.9 65,-68.9 65,-65.8 68.1,-62.7 71.2,-62.7 71.2,-62.7 115.82,-62.7 115.82,-62.7 118.92,-62.7 122.02,-65.8 122.02,-68.9 122.02,-68.9 122.02,-75.1 122.02,-75.1 122.02,-78.2 118.92,-81.3 115.82,-81.3"/>
<text text-anchor="middle" x="93.51" y="-69.3" font-family="Helvetica,sans-Serif" font-size="9.00">Boludez.js</text>
</a>
</g>
</g>
<!-- src/split&#45;object/solution&#45;dot&#45;entries/solution&#45;dot&#45;entries.js -->
<g id="node8" class="node">
<title>src/split&#45;object/solution&#45;dot&#45;entries/solution&#45;dot&#45;entries.js</title>
<g id="a_node8"><a xlink:href="../src/split-object/solution-dot-entries/solution-dot-entries.js" xlink:title="solution&#45;dot&#45;entries.js">
<path fill="#ffffcc" stroke="black" d="M263.08,-50.3C263.08,-50.3 174.46,-50.3 174.46,-50.3 171.36,-50.3 168.26,-47.2 168.26,-44.1 168.26,-44.1 168.26,-37.9 168.26,-37.9 168.26,-34.8 171.36,-31.7 174.46,-31.7 174.46,-31.7 263.08,-31.7 263.08,-31.7 266.18,-31.7 269.28,-34.8 269.28,-37.9 269.28,-37.9 269.28,-44.1 269.28,-44.1 269.28,-47.2 266.18,-50.3 263.08,-50.3"/>
<text text-anchor="middle" x="218.77" y="-38.3" font-family="Helvetica,sans-Serif" font-size="9.00">solution&#45;dot&#45;entries.js</text>
</a>
</g>
</g>
<!-- src/split&#45;object/solution&#45;dot&#45;entries/solution&#45;dot&#45;entries.spec.js -->
<g id="node9" class="node">
<title>src/split&#45;object/solution&#45;dot&#45;entries/solution&#45;dot&#45;entries.spec.js</title>
<g id="a_node9"><a xlink:href="../src/split-object/solution-dot-entries/solution-dot-entries.spec.js" xlink:title="solution&#45;dot&#45;entries.spec.js">
<path fill="#ffffcc" stroke="black" d="M148.82,-50.3C148.82,-50.3 38.19,-50.3 38.19,-50.3 35.09,-50.3 31.99,-47.2 31.99,-44.1 31.99,-44.1 31.99,-37.9 31.99,-37.9 31.99,-34.8 35.09,-31.7 38.19,-31.7 38.19,-31.7 148.82,-31.7 148.82,-31.7 151.92,-31.7 155.02,-34.8 155.02,-37.9 155.02,-37.9 155.02,-44.1 155.02,-44.1 155.02,-47.2 151.92,-50.3 148.82,-50.3"/>
<text text-anchor="middle" x="93.51" y="-38.3" font-family="Helvetica,sans-Serif" font-size="9.00">solution&#45;dot&#45;entries.spec.js</text>
</a>
</g>
</g>
<!-- src/split&#45;object/solution&#45;dot&#45;entries/solution&#45;dot&#45;entries.spec.js&#45;&gt;src/split&#45;object/solution&#45;dot&#45;entries/solution&#45;dot&#45;entries.js -->
<g id="edge4" class="edge">
<title>src/split&#45;object/solution&#45;dot&#45;entries/solution&#45;dot&#45;entries.spec.js&#45;&gt;src/split&#45;object/solution&#45;dot&#45;entries/solution&#45;dot&#45;entries.js</title>
<path fill="none" stroke="#000000" stroke-width="2" stroke-opacity="0.200000" d="M155.06,-41C157.38,-41 159.72,-41 162.04,-41"/>
<polygon fill="#000000" fill-opacity="0.200000" stroke="#000000" stroke-width="2" stroke-opacity="0.200000" points="162.14,-43.1 168.14,-41 162.14,-38.9 162.14,-43.1"/>
</g>
</g>
</svg>
