<?xml version="1.0" encoding="UTF-8" standalone="no"?>
<!DOCTYPE svg PUBLIC "-//W3C//DTD SVG 1.1//EN"
 "http://www.w3.org/Graphics/SVG/1.1/DTD/svg11.dtd">
<!-- Generated by graphviz version 2.44.0 (20200408.0750)
 -->
<!-- Title: dependency&#45;cruiser output Pages: 1 -->
<svg width="263pt" height="178pt"
 viewBox="0.00 0.00 262.51 178.00" xmlns="http://www.w3.org/2000/svg" xmlns:xlink="http://www.w3.org/1999/xlink">
<g id="graph0" class="graph" transform="scale(1 1) rotate(0) translate(4 174)">
<title>dependency&#45;cruiser output</title>
<polygon fill="white" stroke="transparent" points="-4,4 -4,-174 258.51,-174 258.51,4 -4,4"/>
<g id="clust1" class="cluster">
<title>cluster_src</title>
<path fill="#ffffff" stroke="black" stroke-width="2" d="M20,-8C20,-8 234.51,-8 234.51,-8 240.51,-8 246.51,-14 246.51,-20 246.51,-20 246.51,-150 246.51,-150 246.51,-156 240.51,-162 234.51,-162 234.51,-162 20,-162 20,-162 14,-162 8,-156 8,-150 8,-150 8,-20 8,-20 8,-14 14,-8 20,-8"/>
<text text-anchor="middle" x="127.25" y="-149.9" font-family="Helvetica,sans-Serif" font-weight="bold" font-size="9.00">src</text>
</g>
<g id="clust2" class="cluster">
<title>cluster_src/sort&#45;numbers</title>
<path fill="#ffffff" stroke="black" stroke-width="2" d="M28,-16C28,-16 226.51,-16 226.51,-16 232.51,-16 238.51,-22 238.51,-28 238.51,-28 238.51,-123 238.51,-123 238.51,-129 232.51,-135 226.51,-135 226.51,-135 28,-135 28,-135 22,-135 16,-129 16,-123 16,-123 16,-28 16,-28 16,-22 22,-16 28,-16"/>
<text text-anchor="middle" x="127.25" y="-122.9" font-family="Helvetica,sans-Serif" font-weight="bold" font-size="9.00">sort&#45;numbers</text>
</g>
<g id="clust3" class="cluster">
<title>cluster_src/sort&#45;numbers/example&#45;built&#45;in&#45;sort</title>
<path fill="#ffffff" stroke="black" stroke-width="2" d="M36,-24C36,-24 218.51,-24 218.51,-24 224.51,-24 230.51,-30 230.51,-36 230.51,-36 230.51,-96 230.51,-96 230.51,-102 224.51,-108 218.51,-108 218.51,-108 36,-108 36,-108 30,-108 24,-102 24,-96 24,-96 24,-36 24,-36 24,-30 30,-24 36,-24"/>
<text text-anchor="middle" x="127.25" y="-95.9" font-family="Helvetica,sans-Serif" font-weight="bold" font-size="9.00">example&#45;built&#45;in&#45;sort</text>
</g>
<!-- src/sort&#45;numbers/example&#45;built&#45;in&#45;sort/sandbox.js -->
<g id="node1" class="node">
<title>src/sort&#45;numbers/example&#45;built&#45;in&#45;sort/sandbox.js</title>
<g id="a_node1"><a xlink:href="src/sort-numbers/example-built-in-sort/sandbox.js" xlink:title="sandbox.js">
<path fill="#ffffcc" stroke="black" d="M105.07,-81.3C105.07,-81.3 58.44,-81.3 58.44,-81.3 55.34,-81.3 52.24,-78.2 52.24,-75.1 52.24,-75.1 52.24,-68.9 52.24,-68.9 52.24,-65.8 55.34,-62.7 58.44,-62.7 58.44,-62.7 105.07,-62.7 105.07,-62.7 108.17,-62.7 111.27,-65.8 111.27,-68.9 111.27,-68.9 111.27,-75.1 111.27,-75.1 111.27,-78.2 108.17,-81.3 105.07,-81.3"/>
<text text-anchor="middle" x="81.75" y="-69.3" font-family="Helvetica,sans-Serif" font-size="9.00">sandbox.js</text>
</a>
</g>
</g>
<!-- src/sort&#45;numbers/example&#45;built&#45;in&#45;sort/sort&#45;numbers.js -->
<g id="node2" class="node">
<title>src/sort&#45;numbers/example&#45;built&#45;in&#45;sort/sort&#45;numbers.js</title>
<g id="a_node2"><a xlink:href="src/sort-numbers/example-built-in-sort/sort-numbers.js" xlink:title="sort&#45;numbers.js">
<path fill="#ffffcc" stroke="black" d="M216.3,-65.3C216.3,-65.3 150.71,-65.3 150.71,-65.3 147.61,-65.3 144.51,-62.2 144.51,-59.1 144.51,-59.1 144.51,-52.9 144.51,-52.9 144.51,-49.8 147.61,-46.7 150.71,-46.7 150.71,-46.7 216.3,-46.7 216.3,-46.7 219.4,-46.7 222.51,-49.8 222.51,-52.9 222.51,-52.9 222.51,-59.1 222.51,-59.1 222.51,-62.2 219.4,-65.3 216.3,-65.3"/>
<text text-anchor="middle" x="183.51" y="-53.3" font-family="Helvetica,sans-Serif" font-size="9.00">sort&#45;numbers.js</text>
</a>
</g>
</g>
<!-- src/sort&#45;numbers/example&#45;built&#45;in&#45;sort/sandbox.js&#45;&gt;src/sort&#45;numbers/example&#45;built&#45;in&#45;sort/sort&#45;numbers.js -->
<g id="edge1" class="edge">
<title>src/sort&#45;numbers/example&#45;built&#45;in&#45;sort/sandbox.js&#45;&gt;src/sort&#45;numbers/example&#45;built&#45;in&#45;sort/sort&#45;numbers.js</title>
<path fill="none" stroke="#000000" stroke-width="2" stroke-opacity="0.200000" d="M111.34,-67.42C119.74,-66.07 129.14,-64.56 138.29,-63.09"/>
<polygon fill="#000000" fill-opacity="0.200000" stroke="#000000" stroke-width="2" stroke-opacity="0.200000" points="138.65,-65.16 144.25,-62.14 137.99,-61.01 138.65,-65.16"/>
</g>
<!-- src/sort&#45;numbers/example&#45;built&#45;in&#45;sort/sort&#45;numbers.spec.js -->
<g id="node3" class="node">
<title>src/sort&#45;numbers/example&#45;built&#45;in&#45;sort/sort&#45;numbers.spec.js</title>
<g id="a_node3"><a xlink:href="src/sort-numbers/example-built-in-sort/sort-numbers.spec.js" xlink:title="sort&#45;numbers.spec.js">
<path fill="#ffffcc" stroke="black" d="M125.06,-50.3C125.06,-50.3 38.45,-50.3 38.45,-50.3 35.35,-50.3 32.25,-47.2 32.25,-44.1 32.25,-44.1 32.25,-37.9 32.25,-37.9 32.25,-34.8 35.35,-31.7 38.45,-31.7 38.45,-31.7 125.06,-31.7 125.06,-31.7 128.16,-31.7 131.26,-34.8 131.26,-37.9 131.26,-37.9 131.26,-44.1 131.26,-44.1 131.26,-47.2 128.16,-50.3 125.06,-50.3"/>
<text text-anchor="middle" x="81.75" y="-38.3" font-family="Helvetica,sans-Serif" font-size="9.00">sort&#45;numbers.spec.js</text>
</a>
</g>
</g>
<!-- src/sort&#45;numbers/example&#45;built&#45;in&#45;sort/sort&#45;numbers.spec.js&#45;&gt;src/sort&#45;numbers/example&#45;built&#45;in&#45;sort/sort&#45;numbers.js -->
<g id="edge2" class="edge">
<title>src/sort&#45;numbers/example&#45;built&#45;in&#45;sort/sort&#45;numbers.spec.js&#45;&gt;src/sort&#45;numbers/example&#45;built&#45;in&#45;sort/sort&#45;numbers.js</title>
<path fill="none" stroke="#000000" stroke-width="2" stroke-opacity="0.200000" d="M131.46,-48.32C133.77,-48.67 136.09,-49.02 138.39,-49.37"/>
<polygon fill="#000000" fill-opacity="0.200000" stroke="#000000" stroke-width="2" stroke-opacity="0.200000" points="138.17,-51.46 144.42,-50.27 138.8,-47.3 138.17,-51.46"/>
</g>
</g>
</svg>
