<?xml version="1.0" encoding="UTF-8" standalone="no"?>
<!DOCTYPE svg PUBLIC "-//W3C//DTD SVG 1.1//EN"
 "http://www.w3.org/Graphics/SVG/1.1/DTD/svg11.dtd">
<!-- Generated by graphviz version 2.44.0 (20200408.0750)
 -->
<!-- Title: dependency&#45;cruiser output Pages: 1 -->
<svg width="283pt" height="243pt"
 viewBox="0.00 0.00 282.51 243.00" xmlns="http://www.w3.org/2000/svg" xmlns:xlink="http://www.w3.org/1999/xlink">
<g id="graph0" class="graph" transform="scale(1 1) rotate(0) translate(4 239)">
<title>dependency&#45;cruiser output</title>
<polygon fill="white" stroke="transparent" points="-4,4 -4,-239 278.51,-239 278.51,4 -4,4"/>
<g id="clust1" class="cluster">
<title>cluster_src</title>
<path fill="#ffffff" stroke="black" stroke-width="2" d="M20,-8C20,-8 254.51,-8 254.51,-8 260.51,-8 266.51,-14 266.51,-20 266.51,-20 266.51,-215 266.51,-215 266.51,-221 260.51,-227 254.51,-227 254.51,-227 20,-227 20,-227 14,-227 8,-221 8,-215 8,-215 8,-20 8,-20 8,-14 14,-8 20,-8"/>
<text text-anchor="middle" x="137.26" y="-214.9" font-family="Helvetica,sans-Serif" font-weight="bold" font-size="9.00">src</text>
</g>
<g id="clust2" class="cluster">
<title>cluster_src/difference</title>
<path fill="#ffffff" stroke="black" stroke-width="2" d="M28,-112C28,-112 246.51,-112 246.51,-112 252.51,-112 258.51,-118 258.51,-124 258.51,-124 258.51,-188 258.51,-188 258.51,-194 252.51,-200 246.51,-200 246.51,-200 28,-200 28,-200 22,-200 16,-194 16,-188 16,-188 16,-124 16,-124 16,-118 22,-112 28,-112"/>
<text text-anchor="middle" x="137.26" y="-187.9" font-family="Helvetica,sans-Serif" font-weight="bold" font-size="9.00">difference</text>
</g>
<g id="clust3" class="cluster">
<title>cluster_src/difference/arrayDifference</title>
<path fill="#ffffff" stroke="black" stroke-width="2" d="M36,-120C36,-120 238.51,-120 238.51,-120 244.51,-120 250.51,-126 250.51,-132 250.51,-132 250.51,-161 250.51,-161 250.51,-167 244.51,-173 238.51,-173 238.51,-173 36,-173 36,-173 30,-173 24,-167 24,-161 24,-161 24,-132 24,-132 24,-126 30,-120 36,-120"/>
<text text-anchor="middle" x="137.26" y="-160.9" font-family="Helvetica,sans-Serif" font-weight="bold" font-size="9.00">arrayDifference</text>
</g>
<g id="clust4" class="cluster">
<title>cluster_src/sort&#45;numbers</title>
<path fill="#ffffff" stroke="black" stroke-width="2" d="M33,-16C33,-16 241.51,-16 241.51,-16 247.51,-16 253.51,-22 253.51,-28 253.51,-28 253.51,-92 253.51,-92 253.51,-98 247.51,-104 241.51,-104 241.51,-104 33,-104 33,-104 27,-104 21,-98 21,-92 21,-92 21,-28 21,-28 21,-22 27,-16 33,-16"/>
<text text-anchor="middle" x="137.26" y="-91.9" font-family="Helvetica,sans-Serif" font-weight="bold" font-size="9.00">sort&#45;numbers</text>
</g>
<g id="clust5" class="cluster">
<title>cluster_src/sort&#45;numbers/example&#45;built&#45;in&#45;sort</title>
<path fill="#ffffff" stroke="black" stroke-width="2" d="M41,-24C41,-24 233.51,-24 233.51,-24 239.51,-24 245.51,-30 245.51,-36 245.51,-36 245.51,-65 245.51,-65 245.51,-71 239.51,-77 233.51,-77 233.51,-77 41,-77 41,-77 35,-77 29,-71 29,-65 29,-65 29,-36 29,-36 29,-30 35,-24 41,-24"/>
<text text-anchor="middle" x="137.26" y="-64.9" font-family="Helvetica,sans-Serif" font-weight="bold" font-size="9.00">example&#45;built&#45;in&#45;sort</text>
</g>
<!-- src/difference/arrayDifference/array&#45;difference.js -->
<g id="node1" class="node">
<title>src/difference/arrayDifference/array&#45;difference.js</title>
<g id="a_node1"><a xlink:href="../src/difference/arrayDifference/array-difference.js" xlink:title="array&#45;difference.js">
<path fill="#ffffcc" stroke="black" d="M236.32,-146.3C236.32,-146.3 160.71,-146.3 160.71,-146.3 157.61,-146.3 154.51,-143.2 154.51,-140.1 154.51,-140.1 154.51,-133.9 154.51,-133.9 154.51,-130.8 157.61,-127.7 160.71,-127.7 160.71,-127.7 236.32,-127.7 236.32,-127.7 239.42,-127.7 242.52,-130.8 242.52,-133.9 242.52,-133.9 242.52,-140.1 242.52,-140.1 242.52,-143.2 239.42,-146.3 236.32,-146.3"/>
<text text-anchor="middle" x="198.51" y="-134.3" font-family="Helvetica,sans-Serif" font-size="9.00">array&#45;difference.js</text>
</a>
</g>
</g>
<!-- src/difference/arrayDifference/array&#45;difference.spec.js -->
<g id="node2" class="node">
<title>src/difference/arrayDifference/array&#45;difference.spec.js</title>
<g id="a_node2"><a xlink:href="../src/difference/arrayDifference/array-difference.spec.js" xlink:title="array&#45;difference.spec.js">
<path fill="#ffffcc" stroke="black" d="M135.07,-146.3C135.07,-146.3 38.44,-146.3 38.44,-146.3 35.34,-146.3 32.24,-143.2 32.24,-140.1 32.24,-140.1 32.24,-133.9 32.24,-133.9 32.24,-130.8 35.34,-127.7 38.44,-127.7 38.44,-127.7 135.07,-127.7 135.07,-127.7 138.17,-127.7 141.27,-130.8 141.27,-133.9 141.27,-133.9 141.27,-140.1 141.27,-140.1 141.27,-143.2 138.17,-146.3 135.07,-146.3"/>
<text text-anchor="middle" x="86.76" y="-134.3" font-family="Helvetica,sans-Serif" font-size="9.00">array&#45;difference.spec.js</text>
</a>
</g>
</g>
<!-- src/difference/arrayDifference/array&#45;difference.spec.js&#45;&gt;src/difference/arrayDifference/array&#45;difference.js -->
<g id="edge1" class="edge">
<title>src/difference/arrayDifference/array&#45;difference.spec.js&#45;&gt;src/difference/arrayDifference/array&#45;difference.js</title>
<path fill="none" stroke="#000000" stroke-width="2" stroke-opacity="0.200000" d="M141.35,-137C143.66,-137 145.98,-137 148.28,-137"/>
<polygon fill="#000000" fill-opacity="0.200000" stroke="#000000" stroke-width="2" stroke-opacity="0.200000" points="148.33,-139.1 154.33,-137 148.33,-134.9 148.33,-139.1"/>
</g>
<!-- src/sort&#45;numbers/example&#45;built&#45;in&#45;sort/sort&#45;numbers.js -->
<g id="node3" class="node">
<title>src/sort&#45;numbers/example&#45;built&#45;in&#45;sort/sort&#45;numbers.js</title>
<g id="a_node3"><a xlink:href="../src/sort-numbers/example-built-in-sort/sort-numbers.js" xlink:title="sort&#45;numbers.js">
<path fill="#ffffcc" stroke="black" d="M231.31,-50.3C231.31,-50.3 165.71,-50.3 165.71,-50.3 162.61,-50.3 159.51,-47.2 159.51,-44.1 159.51,-44.1 159.51,-37.9 159.51,-37.9 159.51,-34.8 162.61,-31.7 165.71,-31.7 165.71,-31.7 231.31,-31.7 231.31,-31.7 234.41,-31.7 237.51,-34.8 237.51,-37.9 237.51,-37.9 237.51,-44.1 237.51,-44.1 237.51,-47.2 234.41,-50.3 231.31,-50.3"/>
<text text-anchor="middle" x="198.51" y="-38.3" font-family="Helvetica,sans-Serif" font-size="9.00">sort&#45;numbers.js</text>
</a>
</g>
</g>
<!-- src/sort&#45;numbers/example&#45;built&#45;in&#45;sort/sort&#45;numbers.spec.js -->
<g id="node4" class="node">
<title>src/sort&#45;numbers/example&#45;built&#45;in&#45;sort/sort&#45;numbers.spec.js</title>
<g id="a_node4"><a xlink:href="../src/sort-numbers/example-built-in-sort/sort-numbers.spec.js" xlink:title="sort&#45;numbers.spec.js">
<path fill="#ffffcc" stroke="black" d="M130.06,-50.3C130.06,-50.3 43.45,-50.3 43.45,-50.3 40.35,-50.3 37.25,-47.2 37.25,-44.1 37.25,-44.1 37.25,-37.9 37.25,-37.9 37.25,-34.8 40.35,-31.7 43.45,-31.7 43.45,-31.7 130.06,-31.7 130.06,-31.7 133.16,-31.7 136.26,-34.8 136.26,-37.9 136.26,-37.9 136.26,-44.1 136.26,-44.1 136.26,-47.2 133.16,-50.3 130.06,-50.3"/>
<text text-anchor="middle" x="86.76" y="-38.3" font-family="Helvetica,sans-Serif" font-size="9.00">sort&#45;numbers.spec.js</text>
</a>
</g>
</g>
<!-- src/sort&#45;numbers/example&#45;built&#45;in&#45;sort/sort&#45;numbers.spec.js&#45;&gt;src/sort&#45;numbers/example&#45;built&#45;in&#45;sort/sort&#45;numbers.js -->
<g id="edge2" class="edge">
<title>src/sort&#45;numbers/example&#45;built&#45;in&#45;sort/sort&#45;numbers.spec.js&#45;&gt;src/sort&#45;numbers/example&#45;built&#45;in&#45;sort/sort&#45;numbers.js</title>
<path fill="none" stroke="#000000" stroke-width="2" stroke-opacity="0.200000" d="M136.54,-41C142.05,-41 147.65,-41 153.1,-41"/>
<polygon fill="#000000" fill-opacity="0.200000" stroke="#000000" stroke-width="2" stroke-opacity="0.200000" points="153.42,-43.1 159.42,-41 153.42,-38.9 153.42,-43.1"/>
</g>
</g>
</svg>
